<svg xmlns="http://www.w3.org/2000/svg" viewBox="0 0 170 26.4"><defs><style>.cls-1{fill:#00e6c8;}.cls-2{fill:#fff;}</style></defs><g id="Layer_2" data-name="Layer 2"><g id="Header"><path class="cls-1" d="M5.09,17a8.82,8.82,0,0,1-.84-3.77,9,9,0,0,1,9-8.95A8.82,8.82,0,0,1,17,5.09l4.76-1.95A13.19,13.19,0,0,0,3.1,21.69Z"/><path class="cls-1" d="M23.3,4.71l-2,4.72a8.79,8.79,0,0,1,.84,3.77,9,9,0,0,1-8.95,9,8.79,8.79,0,0,1-3.77-.84l-4.76,2A13.19,13.19,0,0,0,23.3,4.71Z"/><circle class="cls-1" cx="13.2" cy="13.2" r="4.17"/><path class="cls-2" d="M166.76,6.69V4.3h1.13a1,1,0,0,1,.68.23.73.73,0,0,1,.26.57.7.7,0,0,1-.15.45.88.88,0,0,1-.4.28l.55.86h-.59l-.49-.79h-.48v.79Zm.51-1.26h.6a.55.55,0,0,0,.32-.09.34.34,0,0,0,0-.48.49.49,0,0,0-.32-.09h-.6v.65Z"/><path class="cls-2" d="M167.67,7.85A2.33,2.33,0,1,1,170,5.53,2.33,2.33,0,0,1,167.67,7.85Zm0-4.11a1.79,1.79,0,1,0,1.78,1.79A1.79,1.79,0,0,0,167.67,3.74Z"/><path class="cls-2" d="M34.69,22V4.4h7.82a6.17,6.17,0,0,1,2.22.39,5.19,5.19,0,0,1,1.74,1.09,5,5,0,0,1,1.15,1.66A5.31,5.31,0,0,1,48,9.68a3.42,3.42,0,0,1-.41,1.62,3.64,3.64,0,0,1-1.11,1.29,4.67,4.67,0,0,1,1.81,1.77A4.73,4.73,0,0,1,49,16.72a5.42,5.42,0,0,1-.42,2.17,4.84,4.84,0,0,1-1.15,1.67,5.29,5.29,0,0,1-1.72,1.06,6,6,0,0,1-2.14.38ZM38.6,7.92v3.32h3.82a1.79,1.79,0,0,0,1.24-.47,1.59,1.59,0,0,0,.52-1.21,1.52,1.52,0,0,0-.52-1.19,1.82,1.82,0,0,0-1.24-.45Zm0,6.75v3.81h4.74a1.6,1.6,0,0,0,1.25-.58,1.89,1.89,0,0,0,.51-1.3,2,2,0,0,0-.51-1.34,1.61,1.61,0,0,0-1.25-.59Z"/><path class="cls-2" d="M50.8,4.4h3.67V22H50.8Z"/><path class="cls-2" d="M63.44,8.41a7.2,7.2,0,0,1,6.68,4.28,6.53,6.53,0,0,1,.58,2.71V22H67.27V20.36a4.73,4.73,0,0,1-1.63,1.48,4.49,4.49,0,0,1-2.2.55,7.2,7.2,0,0,1-6.69-4.28,6.73,6.73,0,0,1,0-5.42,7.26,7.26,0,0,1,1.55-2.23A7.15,7.15,0,0,1,60.61,9,7.28,7.28,0,0,1,63.44,8.41Zm.07,10.66a3.49,3.49,0,0,0,1.43-.3,3.64,3.64,0,0,0,1.94-1.94,3.67,3.67,0,0,0-.78-4A3.59,3.59,0,0,0,64.94,12,3.65,3.65,0,0,0,60.14,14a3.56,3.56,0,0,0,0,2.86A3.59,3.59,0,0,0,60.92,18a3.73,3.73,0,0,0,2.59,1.08Z"/><path class="cls-2" d="M72.28,19.36l6.19-7.43h-6V8.8H83.09v2.64L76.9,18.87h6.19V22H72.28Z"/><path class="cls-2" d="M91.33,8.41A7.2,7.2,0,0,1,98,12.69a6.53,6.53,0,0,1,.58,2.71V22H95.16V20.36a4.73,4.73,0,0,1-1.63,1.48,4.49,4.49,0,0,1-2.2.55,7.2,7.2,0,0,1-6.69-4.28,6.73,6.73,0,0,1,0-5.42,7.26,7.26,0,0,1,1.55-2.23A7.15,7.15,0,0,1,88.5,9,7.28,7.28,0,0,1,91.33,8.41Zm.07,10.66a3.49,3.49,0,0,0,1.43-.3,3.64,3.64,0,0,0,1.94-1.94,3.67,3.67,0,0,0-.78-4A3.59,3.59,0,0,0,92.83,12,3.65,3.65,0,0,0,88,14a3.56,3.56,0,0,0,0,2.86A3.59,3.59,0,0,0,88.81,18a3.73,3.73,0,0,0,2.59,1.08Z"/><path class="cls-2" d="M100.78,15.4a7.18,7.18,0,0,1,.51-2.71,6.85,6.85,0,0,1,1.4-2.23A6.6,6.6,0,0,1,104.85,9a6.83,6.83,0,0,1,2.78-.55h.49v3.32a3.73,3.73,0,0,0-2.59,1.08,3.67,3.67,0,0,0-.79,1.16,3.62,3.62,0,0,0-.29,1.43V22h-3.67Z"/><path class="cls-2" d="M109.71,22V4.4h3.91V18.48h8.31V22Z"/><path class="cls-2" d="M130,8.41a7.26,7.26,0,0,1,2.84.55,7.16,7.16,0,0,1,2.29,1.5,7.29,7.29,0,0,1,1.56,2.23,6.52,6.52,0,0,1,.57,2.71V22h-3.42V20.36a4.67,4.67,0,0,1-1.64,1.48,4.46,4.46,0,0,1-2.2.55,7.2,7.2,0,0,1-6.68-4.28,6.62,6.62,0,0,1,0-5.42,7.26,7.26,0,0,1,1.55-2.23A7.15,7.15,0,0,1,127.22,9,7.27,7.27,0,0,1,130,8.41Zm.08,10.66a3.49,3.49,0,0,0,1.43-.3,3.7,3.7,0,0,0,1.16-.78,3.94,3.94,0,0,0,.78-1.16,3.67,3.67,0,0,0,0-2.86,3.81,3.81,0,0,0-.78-1.16,3.7,3.7,0,0,0-1.16-.78,3.49,3.49,0,0,0-1.43-.3,3.43,3.43,0,0,0-1.43.3,3.63,3.63,0,0,0-1.17.78,3.81,3.81,0,0,0-.78,1.16,3.67,3.67,0,0,0,0,2.86,3.94,3.94,0,0,0,.78,1.16,3.63,3.63,0,0,0,1.17.78A3.43,3.43,0,0,0,130.12,19.07Z"/><path class="cls-2" d="M146.88,8.41a7.2,7.2,0,0,1,6.69,4.28,6.73,6.73,0,0,1,0,5.42A7.26,7.26,0,0,1,152,20.34a7.5,7.5,0,0,1-2.3,1.5,7.26,7.26,0,0,1-2.84.55,4.49,4.49,0,0,1-2.2-.55,4.73,4.73,0,0,1-1.63-1.48V22h-3.43V4.4h3.67V9.9a5,5,0,0,1,1.63-1.1A4.93,4.93,0,0,1,146.88,8.41Zm-.07,10.66a3.46,3.46,0,0,0,1.43-.3,3.64,3.64,0,0,0,1.94-1.94,3.67,3.67,0,0,0-.78-4,3.59,3.59,0,0,0-1.16-.78,3.65,3.65,0,0,0-4.8,1.94,3.56,3.56,0,0,0,0,2.86,3.59,3.59,0,0,0,.78,1.16,3.73,3.73,0,0,0,2.59,1.08Z"/><path class="cls-2" d="M162.16,14.23a5.06,5.06,0,0,1,1.43.34,4.46,4.46,0,0,1,1.25.73,3.86,3.86,0,0,1,.89,1.11,3.13,3.13,0,0,1,.34,1.48,4.12,4.12,0,0,1-.44,1.9,4.24,4.24,0,0,1-1.18,1.41,5.28,5.28,0,0,1-1.72.88,6.5,6.5,0,0,1-2,.31,6.62,6.62,0,0,1-2-.31,5.28,5.28,0,0,1-1.72-.88,4.13,4.13,0,0,1-1.18-1.41,4,4,0,0,1-.44-1.9H159a1.18,1.18,0,0,0,.55,1.13,2.52,2.52,0,0,0,1.16.29,2.28,2.28,0,0,0,1.16-.32,1,1,0,0,0,0-1.78,3.18,3.18,0,0,0-1.37-.49,8.14,8.14,0,0,1-1.87-.47A6.54,6.54,0,0,1,157,15.4a4.51,4.51,0,0,1-1.12-1.19,2.59,2.59,0,0,1-.43-1.45,3.86,3.86,0,0,1,.42-1.81A4,4,0,0,1,157,9.58a5.57,5.57,0,0,1,1.68-.87,6.88,6.88,0,0,1,4,0,5.38,5.38,0,0,1,1.66.88A4.33,4.33,0,0,1,165.51,11a4.16,4.16,0,0,1,.41,1.91h-3.66a1.62,1.62,0,0,0-.14-.7,1.11,1.11,0,0,0-.35-.44,1.32,1.32,0,0,0-.5-.22,2.78,2.78,0,0,0-.58-.06,2.24,2.24,0,0,0-1.08.25,1,1,0,0,0-.48.92.75.75,0,0,0,.27.55,2.65,2.65,0,0,0,.71.47,6.12,6.12,0,0,0,1,.34A10.28,10.28,0,0,0,162.16,14.23Z"/></g></g></svg>